<svg xmlns="http://www.w3.org/2000/svg" viewBox="0 0 1200 630" width="1200" height="630">
  <defs>
    <linearGradient id="bg" x1="0%" y1="0%" x2="100%" y2="100%">
      <stop offset="0%" stop-color="#0a0e17"/>
      <stop offset="50%" stop-color="#141a25"/>
      <stop offset="100%" stop-color="#0f1a36"/>
    </linearGradient>
    <linearGradient id="gold-line" x1="0%" y1="0%" x2="100%" y2="0%">
      <stop offset="0%" stop-color="transparent"/>
      <stop offset="50%" stop-color="#c9a84c" stop-opacity="0.3"/>
      <stop offset="100%" stop-color="transparent"/>
    </linearGradient>
    <radialGradient id="glow" cx="50%" cy="50%">
      <stop offset="0%" stop-color="#c9a84c" stop-opacity="0.08"/>
      <stop offset="100%" stop-color="transparent"/>
    </radialGradient>
  </defs>
  <!-- Background -->
  <rect width="1200" height="630" fill="url(#bg)"/>
  <!-- Radial glow -->
  <ellipse cx="600" cy="315" rx="400" ry="300" fill="url(#glow)"/>
  <!-- Decorative lines -->
  <line x1="0" y1="315" x2="1200" y2="315" stroke="url(#gold-line)" stroke-width="1"/>
  <line x1="600" y1="0" x2="600" y2="630" stroke="url(#gold-line)" stroke-width="1"/>
  <!-- Corner accents -->
  <path d="M40,40 L100,40 M40,40 L40,100" stroke="#c9a84c" stroke-width="1.5" fill="none" opacity="0.4"/>
  <path d="M1160,40 L1100,40 M1160,40 L1160,100" stroke="#c9a84c" stroke-width="1.5" fill="none" opacity="0.4"/>
  <path d="M40,590 L100,590 M40,590 L40,530" stroke="#c9a84c" stroke-width="1.5" fill="none" opacity="0.4"/>
  <path d="M1160,590 L1100,590 M1160,590 L1160,530" stroke="#c9a84c" stroke-width="1.5" fill="none" opacity="0.4"/>
  <!-- Diamond separator -->
  <rect x="592" y="200" width="16" height="16" rx="2" transform="rotate(45,600,208)" fill="none" stroke="#c9a84c" stroke-width="1.5" opacity="0.6"/>
  <!-- Category label -->
  <text x="600" y="270" text-anchor="middle" font-family="system-ui,sans-serif" font-size="14" letter-spacing="6" fill="#c9a84c" font-weight="500">ICON STORY</text>
  <!-- Main title -->
  <text x="600" y="340" text-anchor="middle" font-family="Georgia,serif" font-size="52" fill="#f0f2f5" font-weight="400">Royal Oak</text>
  <!-- Bottom line -->
  <line x1="540" y1="390" x2="660" y2="390" stroke="#c9a84c" stroke-width="2" opacity="0.5"/>
  <!-- Brand watermark -->
  <text x="600" y="440" text-anchor="middle" font-family="system-ui,sans-serif" font-size="12" letter-spacing="4" fill="#8b95a5" font-weight="400">CLONICAWATCH</text>
</svg>